<mxfile host="app.diagrams.net" modified="2023-04-04T11:13:48.584Z" agent="Mozilla/5.0 (Windows NT 10.0; Win64; x64) AppleWebKit/537.36 (KHTML, like Gecko) Chrome/111.0.0.0 Safari/537.36" etag="svcvWHW5oSvQCQywQ-e-" version="21.1.4" type="github">
  <diagram id="o9Yx5MmnMYnDLAF2jlnI" name="Page-1">
    <mxGraphModel dx="1050" dy="545" grid="1" gridSize="10" guides="1" tooltips="1" connect="1" arrows="1" fold="1" page="1" pageScale="1" pageWidth="850" pageHeight="1100" background="#FFFFFF" math="0" shadow="0">
      <root>
        <mxCell id="0" />
        <mxCell id="1" parent="0" />
        <mxCell id="X5nyMMvejQxJnqDm28EH-7" value="" style="rounded=0;whiteSpace=wrap;html=1;" parent="1" vertex="1">
          <mxGeometry y="60" width="860" height="680" as="geometry" />
        </mxCell>
        <mxCell id="g9ZwW_LfofHwZXqpNb5Z-20" value="" style="group" parent="1" vertex="1" connectable="0">
          <mxGeometry x="160" y="300" width="80" height="100" as="geometry" />
        </mxCell>
        <mxCell id="g9ZwW_LfofHwZXqpNb5Z-6" value="" style="outlineConnect=0;dashed=0;verticalLabelPosition=bottom;verticalAlign=top;align=center;html=1;shape=mxgraph.aws3.api_gateway;fillColor=#D9A741;gradientColor=none;" parent="g9ZwW_LfofHwZXqpNb5Z-20" vertex="1">
          <mxGeometry x="10" width="50" height="70" as="geometry" />
        </mxCell>
        <mxCell id="g9ZwW_LfofHwZXqpNb5Z-9" value="Api gateway&lt;br&gt;" style="text;html=1;strokeColor=none;fillColor=none;align=center;verticalAlign=middle;whiteSpace=wrap;rounded=0;" parent="g9ZwW_LfofHwZXqpNb5Z-20" vertex="1">
          <mxGeometry y="70" width="80" height="20" as="geometry" />
        </mxCell>
        <mxCell id="g9ZwW_LfofHwZXqpNb5Z-42" value="" style="endArrow=classic;html=1;" parent="1" edge="1">
          <mxGeometry width="50" height="50" relative="1" as="geometry">
            <mxPoint x="220" y="329.5" as="sourcePoint" />
            <mxPoint x="380" y="329.5" as="targetPoint" />
          </mxGeometry>
        </mxCell>
        <mxCell id="g9ZwW_LfofHwZXqpNb5Z-45" value="Allowed" style="edgeLabel;html=1;align=center;verticalAlign=middle;resizable=0;points=[];" parent="g9ZwW_LfofHwZXqpNb5Z-42" vertex="1" connectable="0">
          <mxGeometry x="-0.2" relative="1" as="geometry">
            <mxPoint x="-4" y="-13" as="offset" />
          </mxGeometry>
        </mxCell>
        <mxCell id="g9ZwW_LfofHwZXqpNb5Z-47" value="" style="points=[[0,0,0],[0.25,0,0],[0.5,0,0],[0.75,0,0],[1,0,0],[0,1,0],[0.25,1,0],[0.5,1,0],[0.75,1,0],[1,1,0],[0,0.25,0],[0,0.5,0],[0,0.75,0],[1,0.25,0],[1,0.5,0],[1,0.75,0]];outlineConnect=0;fontColor=#232F3E;gradientColor=#4D72F3;gradientDirection=north;fillColor=#3334B9;strokeColor=#ffffff;dashed=0;verticalLabelPosition=bottom;verticalAlign=top;align=center;html=1;fontSize=12;fontStyle=0;aspect=fixed;shape=mxgraph.aws4.resourceIcon;resIcon=mxgraph.aws4.dynamodb;" parent="1" vertex="1">
          <mxGeometry x="740" y="352" width="78" height="78" as="geometry" />
        </mxCell>
        <mxCell id="g9ZwW_LfofHwZXqpNb5Z-49" value="" style="group" parent="1" vertex="1" connectable="0">
          <mxGeometry x="390" y="230" width="230" height="200" as="geometry" />
        </mxCell>
        <mxCell id="g9ZwW_LfofHwZXqpNb5Z-18" value="" style="rounded=0;whiteSpace=wrap;html=1;" parent="g9ZwW_LfofHwZXqpNb5Z-49" vertex="1">
          <mxGeometry width="230" height="200" as="geometry" />
        </mxCell>
        <mxCell id="g9ZwW_LfofHwZXqpNb5Z-48" value="" style="group" parent="g9ZwW_LfofHwZXqpNb5Z-49" vertex="1" connectable="0">
          <mxGeometry x="15" y="15" width="180" height="170" as="geometry" />
        </mxCell>
        <mxCell id="g9ZwW_LfofHwZXqpNb5Z-37" value="" style="group" parent="g9ZwW_LfofHwZXqpNb5Z-48" vertex="1" connectable="0">
          <mxGeometry width="90" height="90" as="geometry" />
        </mxCell>
        <mxCell id="g9ZwW_LfofHwZXqpNb5Z-24" value="" style="outlineConnect=0;dashed=0;verticalLabelPosition=bottom;verticalAlign=top;align=center;html=1;shape=mxgraph.aws3.lambda_function;fillColor=#F58534;gradientColor=none;" parent="g9ZwW_LfofHwZXqpNb5Z-37" vertex="1">
          <mxGeometry x="15" width="55" height="66" as="geometry" />
        </mxCell>
        <mxCell id="g9ZwW_LfofHwZXqpNb5Z-34" value="application-login" style="text;html=1;strokeColor=none;fillColor=none;align=center;verticalAlign=middle;whiteSpace=wrap;rounded=0;" parent="g9ZwW_LfofHwZXqpNb5Z-37" vertex="1">
          <mxGeometry y="66" width="90" height="20" as="geometry" />
        </mxCell>
        <mxCell id="g9ZwW_LfofHwZXqpNb5Z-39" value="" style="group" parent="g9ZwW_LfofHwZXqpNb5Z-48" vertex="1" connectable="0">
          <mxGeometry x="120" width="60" height="82" as="geometry" />
        </mxCell>
        <mxCell id="g9ZwW_LfofHwZXqpNb5Z-17" value="" style="outlineConnect=0;dashed=0;verticalLabelPosition=bottom;verticalAlign=top;align=center;html=1;shape=mxgraph.aws3.lambda_function;fillColor=#F58534;gradientColor=none;" parent="g9ZwW_LfofHwZXqpNb5Z-39" vertex="1">
          <mxGeometry width="60" height="62" as="geometry" />
        </mxCell>
        <mxCell id="g9ZwW_LfofHwZXqpNb5Z-35" value="user-login" style="text;html=1;strokeColor=none;fillColor=none;align=center;verticalAlign=middle;whiteSpace=wrap;rounded=0;" parent="g9ZwW_LfofHwZXqpNb5Z-39" vertex="1">
          <mxGeometry y="62" width="60" height="20" as="geometry" />
        </mxCell>
        <mxCell id="g9ZwW_LfofHwZXqpNb5Z-38" style="edgeStyle=orthogonalEdgeStyle;rounded=0;orthogonalLoop=1;jettySize=auto;html=1;exitX=0.5;exitY=1;exitDx=0;exitDy=0;" parent="g9ZwW_LfofHwZXqpNb5Z-39" source="g9ZwW_LfofHwZXqpNb5Z-35" target="g9ZwW_LfofHwZXqpNb5Z-35" edge="1">
          <mxGeometry relative="1" as="geometry" />
        </mxCell>
        <mxCell id="g9ZwW_LfofHwZXqpNb5Z-40" value="" style="group" parent="g9ZwW_LfofHwZXqpNb5Z-48" vertex="1" connectable="0">
          <mxGeometry x="40" y="90" width="120" height="80" as="geometry" />
        </mxCell>
        <mxCell id="g9ZwW_LfofHwZXqpNb5Z-14" value="" style="outlineConnect=0;dashed=0;verticalLabelPosition=bottom;verticalAlign=top;align=center;html=1;shape=mxgraph.aws3.lambda_function;fillColor=#F58534;gradientColor=none;" parent="g9ZwW_LfofHwZXqpNb5Z-40" vertex="1">
          <mxGeometry x="30" width="60" height="60" as="geometry" />
        </mxCell>
        <mxCell id="g9ZwW_LfofHwZXqpNb5Z-36" value="refresh-user-token" style="text;html=1;strokeColor=none;fillColor=none;align=center;verticalAlign=middle;whiteSpace=wrap;rounded=0;" parent="g9ZwW_LfofHwZXqpNb5Z-40" vertex="1">
          <mxGeometry y="60" width="120" height="20" as="geometry" />
        </mxCell>
        <mxCell id="g9ZwW_LfofHwZXqpNb5Z-53" value="" style="endArrow=classic;html=1;exitX=1;exitY=0.75;exitDx=0;exitDy=0;entryX=0.013;entryY=0.359;entryDx=0;entryDy=0;entryPerimeter=0;" parent="1" source="g9ZwW_LfofHwZXqpNb5Z-18" target="g9ZwW_LfofHwZXqpNb5Z-47" edge="1">
          <mxGeometry width="50" height="50" relative="1" as="geometry">
            <mxPoint x="650" y="410" as="sourcePoint" />
            <mxPoint x="700" y="360" as="targetPoint" />
          </mxGeometry>
        </mxCell>
        <mxCell id="g9ZwW_LfofHwZXqpNb5Z-54" value="" style="endArrow=classic;html=1;entryX=1;entryY=0.845;entryDx=0;entryDy=0;entryPerimeter=0;exitX=0;exitY=0.603;exitDx=0;exitDy=0;exitPerimeter=0;" parent="1" source="g9ZwW_LfofHwZXqpNb5Z-47" target="g9ZwW_LfofHwZXqpNb5Z-18" edge="1">
          <mxGeometry width="50" height="50" relative="1" as="geometry">
            <mxPoint x="730" y="393" as="sourcePoint" />
            <mxPoint x="700" y="460" as="targetPoint" />
          </mxGeometry>
        </mxCell>
        <mxCell id="g9ZwW_LfofHwZXqpNb5Z-55" value="" style="endArrow=classic;html=1;exitX=1;exitY=0.25;exitDx=0;exitDy=0;" parent="1" source="g9ZwW_LfofHwZXqpNb5Z-3" edge="1">
          <mxGeometry width="50" height="50" relative="1" as="geometry">
            <mxPoint x="90" y="320" as="sourcePoint" />
            <mxPoint x="160" y="320" as="targetPoint" />
          </mxGeometry>
        </mxCell>
        <mxCell id="g9ZwW_LfofHwZXqpNb5Z-58" value="DynamoDB" style="text;html=1;strokeColor=none;fillColor=none;align=center;verticalAlign=middle;whiteSpace=wrap;rounded=0;" parent="1" vertex="1">
          <mxGeometry x="758.25" y="430" width="40" height="20" as="geometry" />
        </mxCell>
        <mxCell id="g9ZwW_LfofHwZXqpNb5Z-60" value="" style="group" parent="1" vertex="1" connectable="0">
          <mxGeometry x="623" y="220" width="193.5" height="113" as="geometry" />
        </mxCell>
        <mxCell id="g9ZwW_LfofHwZXqpNb5Z-46" value="" style="outlineConnect=0;dashed=0;verticalLabelPosition=bottom;verticalAlign=top;align=center;html=1;shape=mxgraph.aws3.cognito;fillColor=#AD688B;gradientColor=none;" parent="g9ZwW_LfofHwZXqpNb5Z-60" vertex="1">
          <mxGeometry x="117" width="76.5" height="93" as="geometry" />
        </mxCell>
        <mxCell id="g9ZwW_LfofHwZXqpNb5Z-50" value="" style="endArrow=classic;html=1;entryX=0;entryY=0.5;entryDx=0;entryDy=0;entryPerimeter=0;" parent="g9ZwW_LfofHwZXqpNb5Z-60" target="g9ZwW_LfofHwZXqpNb5Z-46" edge="1">
          <mxGeometry width="50" height="50" relative="1" as="geometry">
            <mxPoint y="47" as="sourcePoint" />
            <mxPoint x="67" y="10" as="targetPoint" />
          </mxGeometry>
        </mxCell>
        <mxCell id="g9ZwW_LfofHwZXqpNb5Z-51" value="" style="endArrow=classic;html=1;" parent="g9ZwW_LfofHwZXqpNb5Z-60" edge="1">
          <mxGeometry width="50" height="50" relative="1" as="geometry">
            <mxPoint x="117" y="63" as="sourcePoint" />
            <mxPoint x="-3" y="63" as="targetPoint" />
          </mxGeometry>
        </mxCell>
        <mxCell id="g9ZwW_LfofHwZXqpNb5Z-59" value="Cognito" style="text;html=1;strokeColor=none;fillColor=none;align=center;verticalAlign=middle;whiteSpace=wrap;rounded=0;" parent="g9ZwW_LfofHwZXqpNb5Z-60" vertex="1">
          <mxGeometry x="135.25" y="93" width="40" height="20" as="geometry" />
        </mxCell>
        <mxCell id="X5nyMMvejQxJnqDm28EH-2" value="" style="endArrow=classic;html=1;entryX=1;entryY=0.729;entryDx=0;entryDy=0;entryPerimeter=0;" parent="1" target="g9ZwW_LfofHwZXqpNb5Z-6" edge="1">
          <mxGeometry width="50" height="50" relative="1" as="geometry">
            <mxPoint x="380" y="351" as="sourcePoint" />
            <mxPoint x="240" y="480" as="targetPoint" />
            <Array as="points">
              <mxPoint x="280" y="350" />
            </Array>
          </mxGeometry>
        </mxCell>
        <mxCell id="X5nyMMvejQxJnqDm28EH-3" value="" style="endArrow=classic;html=1;entryX=1;entryY=0.75;entryDx=0;entryDy=0;" parent="1" target="g9ZwW_LfofHwZXqpNb5Z-3" edge="1">
          <mxGeometry width="50" height="50" relative="1" as="geometry">
            <mxPoint x="160" y="348" as="sourcePoint" />
            <mxPoint x="90" y="450" as="targetPoint" />
          </mxGeometry>
        </mxCell>
        <mxCell id="X5nyMMvejQxJnqDm28EH-4" value="Request&amp;nbsp;" style="text;html=1;align=center;verticalAlign=middle;resizable=0;points=[];autosize=1;strokeColor=none;" parent="1" vertex="1">
          <mxGeometry x="80" y="300" width="60" height="20" as="geometry" />
        </mxCell>
        <mxCell id="X5nyMMvejQxJnqDm28EH-5" value="Response" style="text;html=1;align=center;verticalAlign=middle;resizable=0;points=[];autosize=1;strokeColor=none;" parent="1" vertex="1">
          <mxGeometry x="75" y="350" width="70" height="20" as="geometry" />
        </mxCell>
        <mxCell id="g9ZwW_LfofHwZXqpNb5Z-22" value="" style="group" parent="1" vertex="1" connectable="0">
          <mxGeometry x="10" y="310" width="70" height="80" as="geometry" />
        </mxCell>
        <mxCell id="g9ZwW_LfofHwZXqpNb5Z-3" value="" style="outlineConnect=0;fontColor=#000000;gradientColor=none;fillColor=#ffffff;strokeColor=#000000;dashed=0;verticalLabelPosition=bottom;verticalAlign=top;align=center;html=1;fontSize=12;fontStyle=0;aspect=fixed;pointerEvents=1;shape=mxgraph.aws4.client;fontFamily=Helvetica;" parent="g9ZwW_LfofHwZXqpNb5Z-22" vertex="1">
          <mxGeometry width="50" height="50" as="geometry" />
        </mxCell>
        <mxCell id="g9ZwW_LfofHwZXqpNb5Z-4" value="Apps" style="text;html=1;strokeColor=none;fillColor=none;align=center;verticalAlign=middle;whiteSpace=wrap;rounded=0;" parent="g9ZwW_LfofHwZXqpNb5Z-22" vertex="1">
          <mxGeometry x="5" y="50" width="40" height="20" as="geometry" />
        </mxCell>
        <mxCell id="eMkw1z-3qtLy8J55Eb39-1" value="" style="outlineConnect=0;fontColor=#232F3E;gradientColor=none;fillColor=#232F3E;strokeColor=none;dashed=0;verticalLabelPosition=bottom;verticalAlign=top;align=center;html=1;fontSize=12;fontStyle=0;aspect=fixed;pointerEvents=1;shape=mxgraph.aws4.client;" parent="g9ZwW_LfofHwZXqpNb5Z-22" vertex="1">
          <mxGeometry x="5" y="5.51" width="40" height="38.97" as="geometry" />
        </mxCell>
        <mxCell id="zaop_TdyuNyUOUAchXfF-1" value="" style="endArrow=classic;html=1;rounded=0;exitX=0.5;exitY=0;exitDx=0;exitDy=0;exitPerimeter=0;entryX=0.145;entryY=0.855;entryDx=0;entryDy=0;entryPerimeter=0;" edge="1" parent="1" source="g9ZwW_LfofHwZXqpNb5Z-6" target="zaop_TdyuNyUOUAchXfF-18">
          <mxGeometry width="50" height="50" relative="1" as="geometry">
            <mxPoint x="510" y="310" as="sourcePoint" />
            <mxPoint x="236.19417475728164" y="151.29999999999995" as="targetPoint" />
          </mxGeometry>
        </mxCell>
        <mxCell id="zaop_TdyuNyUOUAchXfF-2" value="" style="endArrow=classic;startArrow=classic;html=1;rounded=0;exitX=1;exitY=0.21;exitDx=0;exitDy=0;exitPerimeter=0;entryX=0.5;entryY=1;entryDx=0;entryDy=0;entryPerimeter=0;" edge="1" parent="1" source="g9ZwW_LfofHwZXqpNb5Z-6" target="zaop_TdyuNyUOUAchXfF-18">
          <mxGeometry width="50" height="50" relative="1" as="geometry">
            <mxPoint x="510" y="310" as="sourcePoint" />
            <mxPoint x="250" y="160" as="targetPoint" />
          </mxGeometry>
        </mxCell>
        <mxCell id="zaop_TdyuNyUOUAchXfF-17" value="" style="group" vertex="1" connectable="0" parent="1">
          <mxGeometry x="220" y="100" width="90" height="90" as="geometry" />
        </mxCell>
        <mxCell id="zaop_TdyuNyUOUAchXfF-18" value="" style="outlineConnect=0;dashed=0;verticalLabelPosition=bottom;verticalAlign=top;align=center;html=1;shape=mxgraph.aws3.lambda_function;fillColor=#F58534;gradientColor=none;" vertex="1" parent="zaop_TdyuNyUOUAchXfF-17">
          <mxGeometry x="15" width="55" height="66" as="geometry" />
        </mxCell>
        <mxCell id="zaop_TdyuNyUOUAchXfF-33" value="Lambda Authorizer" style="text;html=1;strokeColor=none;fillColor=none;align=center;verticalAlign=middle;whiteSpace=wrap;rounded=0;" vertex="1" parent="1">
          <mxGeometry x="290" y="120" width="60" height="30" as="geometry" />
        </mxCell>
        <mxCell id="zaop_TdyuNyUOUAchXfF-34" value="Allowed or Denied" style="text;html=1;strokeColor=none;fillColor=none;align=center;verticalAlign=middle;whiteSpace=wrap;rounded=0;" vertex="1" parent="1">
          <mxGeometry x="250" y="220" width="60" height="30" as="geometry" />
        </mxCell>
        <mxCell id="zaop_TdyuNyUOUAchXfF-35" value="&lt;div&gt;appClientId&lt;/div&gt;&lt;div&gt;user token&lt;/div&gt;&lt;div&gt;&lt;br&gt;&lt;/div&gt;" style="text;html=1;strokeColor=none;fillColor=none;align=center;verticalAlign=middle;whiteSpace=wrap;rounded=0;" vertex="1" parent="1">
          <mxGeometry x="160" y="210" width="60" height="30" as="geometry" />
        </mxCell>
      </root>
    </mxGraphModel>
  </diagram>
</mxfile>
